{"title":"No.1 Mr Perfect (2015) - Untouched WEBHD 720p x264 AVC 2CH - [ M","uid":12060843,"size":2155258071,"categoryP":"video","categoryS":"hd___movies","magnet":"?xt=urn:btih:dca30205f560af05a147a4f92f17b3ab35dc7e67&amp;dn=No.1+Mr+Perfect+%282015%29+-+Untouched+WEBHD+720p+x264+AVC+2CH+-+%5B+M&amp;tr=udp%3A%2F%2Ftracker.openbittorrent.com%3A80&amp;tr=udp%3A%2F%2Fopen.demonii.com%3A1337&amp;tr=udp%3A%2F%2Ftracker.coppersurfer.tk%3A6969&amp;tr=udp%3A%2F%2Fexodus.desync.com%3A6969","seeders":0,"leechers":1,"uploader":"Urmit","files":9,"time":1435254399,"description":"[center][img]http://i.imgur.com/ZbGI2j7.png[/img]\n\n[img]http://i.imgur.com/SsyMZdq.jpg[/img]\n\n[size=6][color=blue][b]No.1 Mr Perfect (2015) - Untouched WEBHD 720p x264 AVC 2CH - [ M2Tv ][/b][/color][/size]\n\n[img]http://i.imgur.com/tWjvQAx.png[/img]\n\n\n[code][* Year ].............: [ (2015)\n[* IMDB Link ]........: [ Not Found\n[* Gener ]............: [ Romance, Action\n[* Cast ].............: [ Prabhas | Kajal Agarwal | Taapsee\n\n[* Source ]...........: [ -* M2Tv (Thanks) *-\n[* Ripper ]...........: [ -* TuHiN *-\n[* Language ].........: [ Hindi\n\nFormat                      : MPEG-4\nFormat profile              : Base Media / Version 2\nCodec ID                    : mp42\nFile size                   : 2.01 GiB\nDuration                    : 2h 22mn\nOverall bit rate mode       : Variable\nOverall bit rate            : 2 014 Kbps\n\n\n\n[ * Video ]\n\nFormat                      : AVC\nFormat/Info                 : Advanced Video Codec\nFormat profile              : &lt;a class=&quot;__cf_email__&quot; href=&quot;/cdn-cgi/l/email-protection&quot; data-cfemail=&quot;d29abbb5ba929ee1fce3&quot;&gt;[email&amp;#160;protected]&lt;/a&gt;&lt;script data-cfhash='f9e31' type=&quot;text/javascript&quot;&gt;\n/* &lt;![CDATA[ */!function(){try{var t=&quot;currentScript&quot;in document?document.currentScript:function(){for(var t=document.getElementsByTagName(&quot;script&quot;),e=t.length;e--;)if(t[e].getAttribute(&quot;data-cfhash&quot;))return t[e]}();if(t&amp;&amp;t.previousSibling){var e,r,n,i,c=t.previousSibling,a=c.getAttribute(&quot;data-cfemail&quot;);if(a){for(e=&quot;&quot;,r=parseInt(a.substr(0,2),16),n=2;a.length-n;n+=2)i=parseInt(a.substr(n,2),16)^r,e+=String.fromCharCode(i);e=document.createTextNode(e),c.parentNode.replaceChild(e,c)}t.parentNode.removeChild(t);}}catch(u){}}()/* ]]&gt; */&lt;/script&gt;\nFormat settings, CABAC      : Yes\nFormat settings, ReFrames   : 1 frame\nCodec ID                    : avc1\nCodec ID/Info               : Advanced Video Coding\nDuration                    : 2h 22mn\nBit rate                    : 1 820 Kbps\nMaximum bit rate            : 6 157 Kbps\nWidth                       : 1 280 pixels\nHeight                      : 720 pixels\nDisplay aspect ratio        : 16:9\nFrame rate mode             : Constant\nFrame rate                  : 25.000 fps\nColor space                 : YUV\nChroma subsampling          : 4:2:0\nBit depth                   : 8 bits\nScan type                   : Progressive\nBits/(Pixel*Frame)          : 0.079\nStream size                 : 1.81 GiB (90%)\n\n\n[ * Audio ]\n\nFormat                      : AAC\nFormat/Info                 : Advanced Audio Codec\nFormat profile              : LC\nCodec ID                    : 40\nDuration                    : 2h 22mn\nBit rate mode               : Variable\nBit rate                    : 192 Kbps\nMaximum bit rate            : 201 Kbps\nChannel(s)                  : 2 channels\nChannel positions           : Front: L R\nSampling rate               : 44.1 KHz\nCompression mode            : Lossy\nStream size                 : 196 MiB (10%)\n\n\nNote: &quot;JPEG&quot; less quality, don't judge by this.[/code]\n[li]\n\n[img]http://t1.someimage.com/wHwYEC7.jpg[/img]\n[img]http://t1.someimage.com/A9qI5bZ.jpg[/img]\n[img]http://t1.someimage.com/ZrniQKN.jpg[/img]\n[img]http://t1.someimage.com/Mh2BgL7.jpg[/img]\n\n\n[size=5][u][i]\n[b]Note :[/b]\n[/i][/u][/size]\n\n[color=blue][size=6][i][b]Wherever you share our stuffs, Always Give Proper Credits To &quot;Team M2Tv&quot;, Enjoy.[/b][/i][/size][/color][/li]\n[/center]","torrent":{"xt":"urn:btih:dca30205f560af05a147a4f92f17b3ab35dc7e67","amp;dn":"No.1+Mr+Perfect+%282015%29+-+Untouched+WEBHD+720p+x264+AVC+2CH+-+%5B+M","amp;tr":["udp%3A%2F%2Ftracker.openbittorrent.com%3A80","udp%3A%2F%2Fopen.demonii.com%3A1337","udp%3A%2F%2Ftracker.coppersurfer.tk%3A6969","udp%3A%2F%2Fexodus.desync.com%3A6969"],"infoHash":"dca30205f560af05a147a4f92f17b3ab35dc7e67","infoHashBuffer":{"type":"Buffer","data":[220,163,2,5,245,96,175,5,161,71,164,249,47,23,179,171,53,220,126,103]},"announce":[],"urlList":[]}}